<svg width="25" height="25" viewBox="0 0 25 25" fill="none" xmlns="http://www.w3.org/2000/svg">
<path d="M19.5686 5.77596L10.4711 5.06585C10.2298 5.05123 9.9925 5.13195 9.81019 5.29063C9.62787 5.44931 9.51517 5.67325 9.49637 5.91421C9.47756 6.15518 9.55414 6.39389 9.70963 6.57893C9.86512 6.76398 10.0871 6.88055 10.3277 6.90355L17.2067 7.44049L4.88689 17.9763C4.7011 18.1352 4.58603 18.3614 4.56701 18.6051C4.54798 18.8488 4.62656 19.0901 4.78545 19.2759C4.94434 19.4617 5.17053 19.5768 5.41426 19.5958C5.65799 19.6148 5.8993 19.5363 6.0851 19.3774L18.4049 8.84159L17.868 15.7206C17.8563 15.8425 17.869 15.9654 17.9054 16.0823C17.9418 16.1991 18.0011 16.3076 18.0798 16.4013C18.1586 16.495 18.2552 16.5721 18.364 16.6281C18.4729 16.684 18.5918 16.7178 18.7138 16.7273C18.8359 16.7368 18.9586 16.722 19.0748 16.6835C19.191 16.6451 19.2984 16.584 19.3907 16.5036C19.483 16.4233 19.5584 16.3253 19.6125 16.2155C19.6666 16.1057 19.6982 15.9862 19.7057 15.8641L20.4158 6.76653C20.4348 6.52284 20.3562 6.2816 20.1973 6.09584C20.0385 5.91008 19.8123 5.79502 19.5686 5.77596Z" fill="#333A4D"/>
</svg>
