<svg width="12" height="13" viewBox="0 0 12 13" fill="none" xmlns="http://www.w3.org/2000/svg">
<path d="M10.49 8.70517C9.76078 8.12389 9.02074 7.77179 8.30049 8.35219L7.87041 8.70297C7.55574 8.95761 6.97068 10.1474 4.70864 7.72218C2.44707 5.30005 3.7929 4.92292 4.10804 4.67048L4.54047 4.31926C5.25696 3.73754 4.98657 3.00524 4.46981 2.25142L4.15797 1.79483C3.63886 1.04277 3.07358 0.548864 2.35521 1.1297L1.96706 1.4458C1.64956 1.66137 0.762083 2.36206 0.546808 3.6932C0.287724 5.29039 1.10502 7.11939 2.97749 9.1262C4.8476 11.1339 6.67862 12.1423 8.41307 12.1248C9.85452 12.1103 10.725 11.3894 10.9973 11.1273L11.3869 10.8108C12.1034 10.2304 11.6582 9.63942 10.9285 9.05683L10.49 8.70517Z" fill="white" fill-opacity="0.6"/>
</svg>
