<svg width="18" height="17" viewBox="0 0 18 17" fill="none" xmlns="http://www.w3.org/2000/svg">
<g clip-path="url(#clip0_1_158)">
<path fill-rule="evenodd" clip-rule="evenodd" d="M12.6191 5.05864C14.093 5.40063 14.6568 6.26248 15.3637 7.44873H12.6191V5.05864ZM4.00552 7.54834C4.29412 7.54834 4.50357 7.68763 4.50357 8.01318C4.50357 8.28777 4.2814 8.51047 4.00695 8.51123H0.998047C0.722959 8.51123 0.5 8.73432 0.5 9.00928C0.5 9.28437 0.722959 9.50732 0.998047 9.50732H5.48047C5.75815 9.50732 5.98047 9.73012 5.98047 10.0054C5.98047 10.2805 5.75752 10.5034 5.48243 10.5034H0.998047C0.722959 10.5034 0.5 10.7264 0.5 11.0015C0.5 11.2766 0.722959 11.4995 0.998047 11.4995H2.09375V12.9937C2.09375 13.2687 2.31671 13.4917 2.5918 13.4917H3.59294C3.7714 14.3708 4.54819 15.019 5.46387 15.019C6.37954 15.019 7.15633 14.3708 7.3348 13.4917H12.3918C12.5702 14.3708 13.347 15.019 14.2627 15.019C15.1784 15.019 15.9552 14.3708 16.1336 13.4917H17.002C17.277 13.4917 17.5 13.2687 17.5 12.9937V10.0054C17.5 8.54404 15.9586 8.44702 15.9572 8.44482H12.1211C11.846 8.44482 11.623 8.22187 11.623 7.94678V4.9585H2.5918C2.31671 4.9585 2.09375 5.18146 2.09375 5.45654V6.55225H1.49609C1.22101 6.55225 0.998047 6.77521 0.998047 7.05029C0.998047 7.32538 1.22101 7.54834 1.49609 7.54834H4.00552ZM14.9083 12.4642C15.2649 12.8208 15.2649 13.3991 14.9083 13.7556C14.3348 14.3292 13.3496 13.9211 13.3496 13.1099C13.3496 12.2987 14.3348 11.8907 14.9083 12.4642ZM6.1095 12.4642C6.46607 12.8208 6.46607 13.3991 6.1095 13.7556C5.53598 14.3292 4.55078 13.9211 4.55078 13.1099C4.55078 12.2987 5.53598 11.8907 6.1095 12.4642Z" fill="#3C485C" fill-opacity="0.8"/>
</g>
<defs>
<clipPath id="clip0_1_158">
<rect width="17" height="17" fill="white" transform="translate(0.5)"/>
</clipPath>
</defs>
</svg>
