<svg width="16" height="16" viewBox="0 0 16 16" fill="none" xmlns="http://www.w3.org/2000/svg">
<path d="M12.5703 1.90625H3.42969C2.90171 1.90749 2.39571 2.11778 2.02237 2.49112C1.64903 2.86446 1.43874 3.37046 1.4375 3.89844V9.98281C1.4375 11.0844 2.33281 11.975 3.42969 11.975H7.48906C8.43594 11.975 9.36406 12.2984 10.1047 12.8844L11.4219 13.925C11.5625 14.0375 11.7312 14.0938 11.9 14.0938C12.0125 14.0938 12.1297 14.0703 12.2375 14.0141C12.5047 13.8875 12.6734 13.6203 12.6734 13.3203V11.975C13.183 11.9487 13.6629 11.7279 14.0144 11.3581C14.3659 10.9883 14.5621 10.4977 14.5625 9.9875V3.89844C14.5613 3.37046 14.351 2.86446 13.9776 2.49112C13.6043 2.11778 13.0983 1.90749 12.5703 1.90625ZM8 9.69688H4.25C3.99219 9.69688 3.78125 9.49063 3.78125 9.22813C3.78125 8.97031 3.99219 8.75938 4.25 8.75938H8C8.25781 8.75938 8.46875 8.97031 8.46875 9.22813C8.46875 9.49063 8.25781 9.69688 8 9.69688ZM11.75 7.41406H4.25C3.99219 7.41406 3.78125 7.20312 3.78125 6.94531C3.78125 6.6875 3.99219 6.47656 4.25 6.47656H11.75C12.0078 6.47656 12.2188 6.6875 12.2188 6.94531C12.2188 7.20312 12.0078 7.41406 11.75 7.41406ZM11.75 5.13125H4.25C3.99219 5.13125 3.78125 4.92031 3.78125 4.6625C3.78125 4.4 3.99219 4.19375 4.25 4.19375H11.75C12.0078 4.19375 12.2188 4.4 12.2188 4.6625C12.2188 4.92031 12.0078 5.13125 11.75 5.13125Z" fill="#2F65D4"/>
</svg>
