<svg width="17" height="17" viewBox="0 0 17 17" fill="none" xmlns="http://www.w3.org/2000/svg">
<path d="M0.793613 16.2503C0.636659 16.2503 0.483222 16.2038 0.35271 16.1166C0.222198 16.0294 0.120475 15.9055 0.0604076 15.7605C0.000339894 15.6155 -0.0153736 15.4559 0.0152547 15.302C0.0458829 15.148 0.121477 15.0066 0.232475 14.8957L14.8957 0.232431C15.0445 0.083608 15.2464 0 15.4568 0C15.6673 0 15.8692 0.083608 16.018 0.232431C16.1668 0.381254 16.2504 0.583102 16.2504 0.793569C16.2504 1.00404 16.1668 1.20588 16.018 1.35471L1.35475 16.0179C1.28113 16.0917 1.19366 16.1502 1.09736 16.1901C1.00106 16.23 0.897838 16.2504 0.793613 16.2503Z" fill="#2F65D4"/>
<path d="M15.4568 16.2503C15.3526 16.2504 15.2493 16.23 15.1531 16.1901C15.0568 16.1502 14.9693 16.0917 14.8957 16.0179L0.232431 1.35471C0.083608 1.20588 0 1.00404 0 0.793569C0 0.583102 0.083608 0.381254 0.232431 0.232431C0.381254 0.083608 0.583102 0 0.793569 0C1.00404 0 1.20588 0.083608 1.35471 0.232431L16.0179 14.8957C16.1289 15.0066 16.2045 15.148 16.2352 15.302C16.2658 15.4559 16.2501 15.6155 16.19 15.7605C16.1299 15.9055 16.0282 16.0294 15.8977 16.1166C15.7672 16.2038 15.6138 16.2503 15.4568 16.2503Z" fill="#2F65D4"/>
</svg>
