<svg width="17" height="18" viewBox="0 0 17 18" fill="none" xmlns="http://www.w3.org/2000/svg">
<g clip-path="url(#clip0_1_2444)">
<path d="M0.551065 6.32535H15.4576C15.565 6.32532 15.6696 6.29056 15.7557 6.22625C15.8417 6.16194 15.9047 6.07153 15.9352 5.96851C15.9657 5.86545 15.962 5.75531 15.9247 5.65452C15.8874 5.55373 15.8186 5.46768 15.7284 5.40923L8.27524 0.580072C8.19459 0.527809 8.10054 0.5 8.00444 0.5C7.90833 0.5 7.81428 0.527809 7.73363 0.580072L0.280234 5.40923C0.190072 5.46769 0.12123 5.55374 0.0839808 5.65453C0.046732 5.75533 0.0430736 5.86546 0.0735515 5.96851C0.103998 6.07153 0.166948 6.16195 0.253004 6.22626C0.339059 6.29058 0.443633 6.32533 0.551065 6.32535ZM14.5695 14.603H1.43915C0.645707 14.603 0 15.2484 0 16.0421V16.0608C0 16.8543 0.645707 17.4999 1.43915 17.4999H14.5695C15.3632 17.4999 16.0087 16.8543 16.0087 16.0608V16.0421C16.0087 15.2484 15.3632 14.603 14.5695 14.603ZM3.77415 7.34208C3.77415 7.0671 3.55116 6.84403 3.27611 6.84403H1.62498C1.3499 6.84403 1.12694 7.0671 1.12694 7.34208C1.12694 7.61713 1.3499 7.84012 1.62498 7.84012H1.95619C1.95382 7.8593 1.95261 7.8786 1.95255 7.89792V13.0865C1.95255 13.1062 1.95388 13.1254 1.95619 13.1444H1.62496C1.3499 13.1444 1.12691 13.3675 1.12691 13.6425C1.12691 13.9175 1.3499 14.1405 1.62496 14.1405H3.27608C3.55116 14.1405 3.77413 13.9175 3.77413 13.6425C3.77413 13.3675 3.55116 13.1444 3.27608 13.1444H2.94501C2.94718 13.1254 2.94865 13.1061 2.94865 13.0865V7.89803C2.94865 7.87851 2.94718 7.85912 2.94501 7.84023H3.27611C3.55116 7.84012 3.77415 7.61713 3.77415 7.34208ZM7.47672 7.34208C7.47672 7.0671 7.25373 6.84403 6.97867 6.84403H5.32755C5.05247 6.84403 4.82951 7.0671 4.82951 7.34208C4.82951 7.61713 5.05247 7.84012 5.32755 7.84012H5.65863C5.65632 7.8593 5.65511 7.8786 5.65501 7.89792V13.0865C5.65501 13.1062 5.65645 13.1254 5.65863 13.1444H5.32753C5.05247 13.1444 4.82948 13.3675 4.82948 13.6425C4.82948 13.9175 5.05247 14.1405 5.32753 14.1405H6.97865C7.25373 14.1405 7.4767 13.9175 7.4767 13.6425C7.4767 13.3675 7.25373 13.1444 6.97865 13.1444H6.64747C6.64984 13.1252 6.65105 13.1059 6.65111 13.0865V7.89803C6.65111 7.87851 6.64975 7.85912 6.64747 7.84023H6.97867C7.25373 7.84012 7.47672 7.61713 7.47672 7.34208ZM11.1794 7.34208C11.1794 7.0671 10.9563 6.84403 10.6813 6.84403H9.03009C8.75504 6.84403 8.53205 7.0671 8.53205 7.34208C8.53205 7.61713 8.75504 7.84012 9.03009 7.84012H9.3612C9.35897 7.85931 9.35779 7.87861 9.35766 7.89792V13.0865C9.35766 13.1062 9.35912 13.1254 9.3612 13.1444H9.03009C8.75504 13.1444 8.53205 13.3675 8.53205 13.6425C8.53205 13.9175 8.75504 14.1405 9.03009 14.1405H10.6813C10.9563 14.1405 11.1794 13.9175 11.1794 13.6425C11.1794 13.3675 10.9563 13.1444 10.6813 13.1444H10.35C10.3522 13.1254 10.3536 13.1061 10.3536 13.0865V7.89803C10.3536 7.87851 10.3522 7.85912 10.35 7.84023H10.6813C10.9563 7.84012 11.1794 7.61713 11.1794 7.34208ZM14.8818 7.34208C14.8818 7.0671 14.6587 6.84403 14.3838 6.84403H12.7327C12.4575 6.84403 12.2346 7.0671 12.2346 7.34208C12.2346 7.61713 12.4575 7.84012 12.7327 7.84012H13.0637C13.0615 7.85931 13.0603 7.87861 13.0602 7.89792V13.0865C13.0602 13.1062 13.0617 13.1254 13.0637 13.1444H12.7327C12.4575 13.1444 12.2346 13.3675 12.2346 13.6425C12.2346 13.9175 12.4575 14.1405 12.7327 14.1405H14.3838C14.6587 14.1405 14.8818 13.9175 14.8818 13.6425C14.8818 13.3675 14.6587 13.1444 14.3838 13.1444H14.0526C14.0548 13.1254 14.0562 13.1061 14.0562 13.0865V7.89803C14.0562 7.87851 14.0548 7.85912 14.0526 7.84023H14.3838C14.6587 7.84012 14.8818 7.61713 14.8818 7.34208Z" fill="#2F65D4"/>
</g>
<defs>
<clipPath id="clip0_1_2444">
<rect width="17" height="17" fill="white" transform="translate(0 0.5)"/>
</clipPath>
</defs>
</svg>
