<svg width="14" height="14" viewBox="0 0 14 14" fill="none" xmlns="http://www.w3.org/2000/svg">
<g clip-path="url(#clip0_1_290)">
<path d="M13.0014 6.5434H12.6325C12.5047 6.29911 12.3514 6.06461 12.174 5.84228V3.34776C12.174 3.09574 11.9695 2.89123 11.7174 2.89123C10.8394 2.89123 10.0593 3.38788 9.67824 4.14519C5.7263 2.86597 1.8261 5.31742 1.8261 8.3695H1.61211C1.22661 8.3695 0.913062 8.05592 0.913062 7.67045V6.99993C0.913062 6.7479 0.708559 6.5434 0.456531 6.5434C0.204504 6.5434 0 6.7479 0 6.99993V7.67043C0 8.5594 0.723133 9.28253 1.61211 9.28253H1.93818C2.17068 10.2412 2.76393 11.1139 3.6522 11.7747V13.3912C3.6522 13.6433 3.8567 13.8478 4.10873 13.8478H5.93482C6.18685 13.8478 6.39136 13.6433 6.39136 13.3912V12.8652C6.73345 12.9091 7.11211 12.9347 7.45659 12.9347C7.80106 12.9347 8.17972 12.9091 8.52182 12.8652V13.3912C8.52182 13.6433 8.72632 13.8478 8.97835 13.8478H10.8044C11.0565 13.8478 11.261 13.6433 11.261 13.3912V11.7747C11.8503 11.336 12.3182 10.7972 12.6326 10.1956H13.0015C13.5522 10.1956 14.0001 9.74768 14.0001 9.19697V7.54208C14 6.99132 13.5521 6.5434 13.0014 6.5434ZM7.45653 6.5434C6.67576 6.5434 5.81828 6.78146 5.32254 7.13575C5.11602 7.28283 4.83118 7.23345 4.6856 7.02965C4.53909 6.82458 4.58661 6.53954 4.79169 6.39271C5.43993 5.92964 6.4858 5.63034 7.45653 5.63034C7.70856 5.63034 7.91306 5.83484 7.91306 6.08687C7.91306 6.3389 7.70856 6.5434 7.45653 6.5434ZM10.8043 8.3695C10.5522 8.3695 10.3478 8.1651 10.3478 7.91297C10.3478 7.66083 10.5522 7.45644 10.8043 7.45644C11.0565 7.45644 11.2609 7.66083 11.2609 7.91297C11.2609 8.1651 11.0565 8.3695 10.8043 8.3695ZM3.65217 0.1521C2.64521 0.1521 1.82607 0.971209 1.82607 1.9782C1.82607 2.98519 2.64518 3.80429 3.65217 3.80429C4.65913 3.80429 5.47827 2.98519 5.47827 1.9782C5.47827 0.971209 4.65913 0.1521 3.65217 0.1521Z" fill="white"/>
</g>
<defs>
<clipPath id="clip0_1_290">
<rect width="14" height="14" fill="white"/>
</clipPath>
</defs>
</svg>
