<svg width="17" height="17" viewBox="0 0 17 17" fill="none" xmlns="http://www.w3.org/2000/svg">
<path d="M11.0152 9.2056L9.59137 10.6342C9.014 11.2136 7.99812 11.2261 7.40827 10.6342L5.98442 9.2056L0.870605 14.336C1.06096 14.424 1.27084 14.4766 1.49396 14.4766H15.5057C15.7288 14.4766 15.9386 14.4241 16.1289 14.336L11.0152 9.2056Z" fill="white"/>
<path d="M15.5059 2.52344H1.49414C1.27102 2.52344 1.06114 2.57596 0.870852 2.66399L6.33532 8.14659C6.33569 8.14695 6.33612 8.14702 6.33648 8.14738C6.33671 8.14762 6.33686 8.14792 6.33692 8.14825L8.11372 9.93092C8.30244 10.1196 8.69762 10.1196 8.88635 9.93092L10.6628 8.14854C10.6628 8.14854 10.6632 8.14775 10.6636 8.14738C10.6636 8.14738 10.6644 8.14695 10.6647 8.14659L16.1291 2.66395C15.9388 2.5759 15.729 2.52344 15.5059 2.52344ZM0.15891 3.36055C0.0604297 3.55971 0 3.78077 0 4.01758V12.9824C0 13.2192 0.0603633 13.4403 0.158877 13.6394L5.28155 8.50017L0.15891 3.36055ZM16.8411 3.36049L11.7185 8.50017L16.8411 13.6395C16.9396 13.4404 17 13.2193 17 12.9824V4.01758C17 3.78071 16.9396 3.55964 16.8411 3.36049Z" fill="white"/>
</svg>
