<svg width="15" height="15" viewBox="0 0 15 15" fill="none" xmlns="http://www.w3.org/2000/svg">
<path d="M8.32757 0.562614L8.22462 0.459665C7.77705 0.012155 7.06915 0.0825846 6.67356 0.561237L7.5009 1.3892L8.32757 0.562614ZM14.8712 10.0038L13.9153 9.04801C13.2622 9.70131 11.8519 11.1119 10.7434 12.2198C10.2158 12.7475 9.60512 13.1686 8.92646 13.4736L10.1647 14.7116C10.3363 14.8832 10.6145 14.8831 10.7862 14.7115L14.8713 10.6252C15.0429 10.4536 15.0429 10.1754 14.8712 10.0038ZM13.6559 8.0644C14.5786 7.06971 13.2034 5.69238 12.2091 6.61608L12.5701 6.25374C13.4929 5.25811 12.1179 3.88174 11.1208 4.80542L11.4844 4.44307C12.408 3.4466 11.0303 2.07102 10.0351 2.99449L10.3987 2.63241C11.3228 1.63541 9.94312 0.26068 8.94931 1.18385L8.12217 2.01093L8.8463 2.73559C9.90752 3.76898 9.35589 5.64548 7.90851 5.94052C7.77134 6.63293 7.16308 7.24916 6.46189 7.38841C6.32469 8.08213 5.71537 8.69882 5.01242 8.83743C4.71122 10.2843 2.8516 10.8374 1.80811 9.77212L1.08448 9.04801L0.128723 10.0037C-0.0429272 10.1753 -0.042898 10.4536 0.128752 10.6252L4.21619 14.7115C4.38784 14.8831 4.66611 14.8831 4.8377 14.7114L6.41422 13.1343C7.10286 13.1342 7.78475 12.9985 8.42094 12.735C9.05714 12.4714 9.6352 12.0851 10.1221 11.5981C11.3002 10.4204 12.4782 9.24252 13.6559 8.0644Z" fill="white"/>
<path d="M2.4298 9.15109C3.42595 10.0749 4.80237 8.69816 3.87914 7.70254C4.87535 8.62624 6.25172 7.24961 5.32849 6.25395C6.32388 7.17804 7.6977 5.79924 6.77528 4.80563C7.77015 5.72898 9.14839 4.35367 8.2246 3.35705L6.05315 1.18407C5.65113 0.784346 5.00326 0.784346 4.60383 1.18407C4.20434 1.5838 4.20434 2.23293 4.60383 2.63266L4.96485 2.99474C3.9709 2.07036 2.59078 3.4515 3.51809 4.44332L3.87911 4.80563C2.8834 3.88152 1.50645 5.25842 2.4298 6.25395L2.77119 6.59518C1.76561 5.7129 0.431661 7.08353 1.34402 8.06462C1.34405 8.06459 2.4298 9.15109 2.4298 9.15109Z" fill="white"/>
</svg>
