<svg width="45" height="45" viewBox="0 0 45 45" fill="none" xmlns="http://www.w3.org/2000/svg">
<path d="M16.875 2.8125C7.55438 2.8125 0 9.10969 0 16.875C0 21.3525 2.52562 25.3238 6.44344 27.8944L4.21875 32.3438L10.2797 29.7478C11.5791 30.2091 12.9291 30.5888 14.3719 30.7659C14.175 29.9081 14.0625 29.0278 14.0625 28.125C14.0625 20.3709 21.6309 14.0625 30.9375 14.0625C31.7897 14.0625 32.6222 14.1328 33.4434 14.2341C31.9584 7.73156 25.11 2.8125 16.875 2.8125ZM11.25 13.3594C10.0856 13.3594 9.14062 12.4144 9.14062 11.25C9.14062 10.0856 10.0856 9.14062 11.25 9.14062C12.4144 9.14062 13.3594 10.0856 13.3594 11.25C13.3594 12.4144 12.4144 13.3594 11.25 13.3594ZM22.5 13.3594C21.3356 13.3594 20.3906 12.4144 20.3906 11.25C20.3906 10.0856 21.3356 9.14062 22.5 9.14062C23.6644 9.14062 24.6094 10.0856 24.6094 11.25C24.6094 12.4144 23.6644 13.3594 22.5 13.3594Z" fill="white"/>
<path d="M45 28.125C45 21.9122 38.7028 16.875 30.9375 16.875C23.1722 16.875 16.875 21.9122 16.875 28.125C16.875 34.3378 23.1722 39.375 30.9375 39.375C32.2144 39.375 33.4294 39.195 34.6078 38.9391L42.1875 42.1875L39.5662 36.9478C42.8512 34.8891 45 31.7222 45 28.125ZM26.7188 27.4219C25.5544 27.4219 24.6094 26.4769 24.6094 25.3125C24.6094 24.1481 25.5544 23.2031 26.7188 23.2031C27.8831 23.2031 28.8281 24.1481 28.8281 25.3125C28.8281 26.4769 27.8831 27.4219 26.7188 27.4219ZM35.1562 27.4219C33.9919 27.4219 33.0469 26.4769 33.0469 25.3125C33.0469 24.1481 33.9919 23.2031 35.1562 23.2031C36.3206 23.2031 37.2656 24.1481 37.2656 25.3125C37.2656 26.4769 36.3206 27.4219 35.1562 27.4219Z" fill="white"/>
</svg>
