<svg width="15" height="15" viewBox="0 0 15 15" fill="none" xmlns="http://www.w3.org/2000/svg">
<path d="M8.43563 7.45875C8.66555 7.47703 8.90297 7.50773 9.15891 7.50375C9.94898 7.50375 10.3238 7.32492 10.3741 7.21219C10.4873 6.96 10.7391 6.79688 11.0156 6.79688C11.2922 6.79688 11.5439 6.96 11.6571 7.21219C11.7077 7.32469 12.0823 7.50375 12.8719 7.50375C13.0359 7.50375 13.2019 7.49344 13.3594 7.47844V3.98438H9.84375V6.02672C9.87867 6.65461 8.98078 6.98438 8.59922 6.47555L7.5 5.20055L6.39187 6.48586C6.15305 6.79922 5.61586 6.80461 5.34891 6.5093C5.2848 6.44357 5.23469 6.36553 5.20162 6.27988C5.16855 6.19423 5.15319 6.10277 5.15648 6.01102V3.98438H1.64062V11.7188C1.64062 11.7809 1.66532 11.8405 1.70927 11.8845C1.75323 11.9284 1.81284 11.9531 1.875 11.9531H7.87266C7.78279 11.7093 7.736 11.4517 7.73438 11.1919V8.16234C7.72055 7.79508 8.06437 7.44867 8.43563 7.45875Z" fill="#2F65D4"/>
<path d="M9.375 9.1407V11.192C9.375 11.4155 9.49945 11.6267 9.70008 11.7434L11.0156 12.5091L12.3312 11.7434C12.532 11.6267 12.6562 11.4155 12.6562 11.192V9.1407C11.9927 9.11961 11.4422 8.99422 11.0156 8.76758C10.5888 8.99422 10.0383 9.11961 9.375 9.1407ZM12.1781 9.85812L10.9148 11.2644C10.8748 11.3089 10.8192 11.3364 10.7596 11.3414C10.6999 11.3463 10.6406 11.3282 10.5938 11.2909L9.88125 10.7209C9.64219 10.5282 9.93422 10.1649 10.1738 10.3548L10.7138 10.7865L11.8294 9.54477C12.0359 9.31742 12.3813 9.62984 12.1781 9.85812Z" fill="#2F65D4"/>
<path d="M13.5638 7.92984C12.8777 8.01844 11.5069 8.02195 11.2294 7.40414C11.2109 7.36296 11.1808 7.328 11.1429 7.30347C11.105 7.27895 11.0608 7.2659 11.0156 7.2659C10.9705 7.2659 10.9263 7.27895 10.8883 7.30347C10.8504 7.328 10.8204 7.36296 10.8019 7.40414C10.5246 8.02195 9.15375 8.0182 8.4675 7.92984C8.33063 7.90945 8.20031 8.025 8.20313 8.16234V11.1919C8.20313 11.831 8.5507 12.4305 9.11063 12.7563L10.8977 13.7962C10.9335 13.8171 10.9742 13.8281 11.0156 13.8281C11.057 13.8281 11.0977 13.8171 11.1335 13.7962L12.9206 12.7563C13.4805 12.4305 13.8281 11.831 13.8281 11.1919V8.16234C13.8309 8.02523 13.6999 7.90922 13.5638 7.92984ZM13.125 11.1919C13.125 11.5819 12.9113 11.9482 12.5672 12.1486L11.1335 12.983C11.0977 13.0038 11.057 13.0148 11.0156 13.0148C10.9742 13.0148 10.9335 13.0038 10.8977 12.983L9.4643 12.1486C9.12 11.9482 8.90625 11.5819 8.90625 11.1919V8.90906C8.90391 8.7825 9.01641 8.67047 9.14344 8.67469C9.87656 8.67984 10.4845 8.5507 10.8933 8.29781C10.9301 8.27523 10.9725 8.26327 11.0157 8.26327C11.059 8.26327 11.1013 8.27523 11.1382 8.29781C11.546 8.54812 12.1256 8.67516 12.8611 8.67516C12.8946 8.67234 12.9291 8.67633 12.9616 8.68687C12.9745 8.69133 12.9853 8.7007 12.9975 8.70727C13.0146 8.71617 13.0322 8.72391 13.0467 8.73727C13.0634 8.75203 13.0753 8.77102 13.0873 8.78977C13.0929 8.79914 13.1011 8.80664 13.1053 8.81648C13.1189 8.84549 13.1257 8.87726 13.125 8.9093V11.1919ZM5.15625 1.40625C5.15625 1.32375 5.17313 1.24547 5.19938 1.17188H1.40625C1.34409 1.17188 1.28448 1.19657 1.24052 1.24052C1.19657 1.28448 1.17188 1.34409 1.17188 1.40625V3.28125C1.17188 3.34341 1.19657 3.40302 1.24052 3.44698C1.28448 3.49093 1.34409 3.51562 1.40625 3.51562H5.15625V1.40625ZM13.5938 1.17188H9.80063C9.82688 1.24547 9.84375 1.32375 9.84375 1.40625V3.51562H13.5938C13.6559 3.51562 13.7155 3.49093 13.7595 3.44698C13.8034 3.40302 13.8281 3.34341 13.8281 3.28125V1.40625C13.8281 1.34409 13.8034 1.28448 13.7595 1.24052C13.7155 1.19657 13.6559 1.17188 13.5938 1.17188ZM6.0368 6.17977L7.5 4.48266L8.9632 6.17977C9.09633 6.34383 9.3818 6.23766 9.375 6.02672V1.40625C9.375 1.34409 9.35031 1.28448 9.30635 1.24052C9.2624 1.19657 9.20279 1.17188 9.14063 1.17188H5.85938C5.79721 1.17188 5.7376 1.19657 5.69365 1.24052C5.64969 1.28448 5.625 1.34409 5.625 1.40625V6.02672C5.61797 6.23695 5.90461 6.34477 6.0368 6.17977Z" fill="#2F65D4"/>
</svg>
