<svg width="24" height="24" viewBox="0 0 24 24" fill="none" xmlns="http://www.w3.org/2000/svg">
<circle cx="12" cy="12" r="12" fill="#141D2B"/>
<g clip-path="url(#clip0_1_927)">
<path d="M10.5 6.75C8.0145 6.75 6 8.42925 6 10.5C6 11.694 6.6735 12.753 7.71825 13.4385L7.125 14.625L8.74125 13.9327C9.08775 14.0557 9.44775 14.157 9.8325 14.2043C9.78 13.9755 9.75 13.7407 9.75 13.5C9.75 11.4323 11.7682 9.75 14.25 9.75C14.4772 9.75 14.6992 9.76875 14.9182 9.79575C14.5222 8.06175 12.696 6.75 10.5 6.75ZM9 9.5625C8.6895 9.5625 8.4375 9.3105 8.4375 9C8.4375 8.6895 8.6895 8.4375 9 8.4375C9.3105 8.4375 9.5625 8.6895 9.5625 9C9.5625 9.3105 9.3105 9.5625 9 9.5625ZM12 9.5625C11.6895 9.5625 11.4375 9.3105 11.4375 9C11.4375 8.6895 11.6895 8.4375 12 8.4375C12.3105 8.4375 12.5625 8.6895 12.5625 9C12.5625 9.3105 12.3105 9.5625 12 9.5625Z" fill="white"/>
<path d="M18 13.5C18 11.8432 16.3207 10.5 14.25 10.5C12.1793 10.5 10.5 11.8432 10.5 13.5C10.5 15.1568 12.1793 16.5 14.25 16.5C14.5905 16.5 14.9145 16.452 15.2288 16.3837L17.25 17.25L16.551 15.8527C17.427 15.3038 18 14.4592 18 13.5ZM13.125 13.3125C12.8145 13.3125 12.5625 13.0605 12.5625 12.75C12.5625 12.4395 12.8145 12.1875 13.125 12.1875C13.4355 12.1875 13.6875 12.4395 13.6875 12.75C13.6875 13.0605 13.4355 13.3125 13.125 13.3125ZM15.375 13.3125C15.0645 13.3125 14.8125 13.0605 14.8125 12.75C14.8125 12.4395 15.0645 12.1875 15.375 12.1875C15.6855 12.1875 15.9375 12.4395 15.9375 12.75C15.9375 13.0605 15.6855 13.3125 15.375 13.3125Z" fill="white"/>
</g>
<defs>
<clipPath id="clip0_1_927">
<rect width="12" height="12" fill="white" transform="translate(6 6)"/>
</clipPath>
</defs>
</svg>
