<svg width="24" height="24" viewBox="0 0 24 24" fill="none" xmlns="http://www.w3.org/2000/svg">
<circle cx="12" cy="12" r="12" fill="#141D2B"/>
<g clip-path="url(#clip0_1_933)">
<path d="M12.5014 6H12.4986C9.46606 6 7 8.46675 7 11.5C7 12.7031 7.38775 13.8183 8.04706 14.7237L7.36163 16.7669L9.47569 16.0911C10.3454 16.6673 11.3828 17 12.5014 17C15.5339 17 18 14.5326 18 11.5C18 8.46744 15.5339 6 12.5014 6ZM15.7017 13.7667C15.569 14.1414 15.0424 14.4521 14.6223 14.5429C14.3349 14.6041 13.9596 14.6529 12.6959 14.129C11.0796 13.4594 10.0387 11.8169 9.95762 11.7104C9.87994 11.6038 9.3045 10.8407 9.3045 10.0514C9.3045 9.26219 9.70531 8.87788 9.86688 8.71288C9.99956 8.57744 10.2189 8.51556 10.4293 8.51556C10.4973 8.51556 10.5585 8.519 10.6135 8.52175C10.7751 8.52863 10.8562 8.53825 10.9627 8.79331C11.0954 9.113 11.4186 9.90225 11.4571 9.98338C11.4962 10.0645 11.5354 10.1745 11.4804 10.2811C11.4289 10.3911 11.3835 10.4399 11.3024 10.5334C11.2213 10.6269 11.1442 10.6984 11.0631 10.7987C10.9889 10.8861 10.905 10.9796 10.9985 11.1411C11.092 11.2993 11.4151 11.8266 11.8909 12.2501C12.5048 12.7966 13.0026 12.9713 13.1806 13.0455C13.3133 13.1005 13.4714 13.0874 13.5684 12.9843C13.6914 12.8516 13.8434 12.6316 13.9981 12.4151C14.1081 12.2597 14.2469 12.2404 14.3927 12.2954C14.5412 12.347 15.327 12.7354 15.4886 12.8159C15.6501 12.897 15.7567 12.9355 15.7959 13.0036C15.8344 13.0716 15.8344 13.3913 15.7017 13.7667Z" fill="white"/>
</g>
<defs>
<clipPath id="clip0_1_933">
<rect width="11" height="11" fill="white" transform="translate(7 6)"/>
</clipPath>
</defs>
</svg>
