<svg width="24" height="24" viewBox="0 0 24 24" fill="none" xmlns="http://www.w3.org/2000/svg">
<circle cx="12" cy="12" r="12" fill="#141D2B"/>
<path d="M16.733 7.37032C15.2291 7.99312 8.78064 10.6642 6.99888 11.3922C5.80392 11.8586 6.5034 12.2957 6.5034 12.2957C6.5034 12.2957 7.5234 12.6454 8.39772 12.9077C9.27204 13.17 9.73836 12.8786 9.73836 12.8786L13.8476 10.1098C15.3048 9.11896 14.9551 9.93496 14.6054 10.2846C13.8476 11.0424 12.5945 12.2373 11.5453 13.1991C11.079 13.6071 11.3122 13.9569 11.5162 14.1317C12.274 14.7729 14.3431 16.0844 14.4598 16.1718C15.0755 16.6077 16.2865 17.2352 16.4707 15.9095L17.1994 11.3339C17.4325 9.78928 17.6657 8.36116 17.6948 7.95316C17.7822 6.96232 16.733 7.37032 16.733 7.37032Z" fill="white"/>
</svg>
