<svg width="14" height="15" viewBox="0 0 14 15" fill="none" xmlns="http://www.w3.org/2000/svg">
<path d="M6.54874 0.945683C6.72986 0.566122 7.27014 0.566122 7.45126 0.945683L9.18725 4.58374C9.26014 4.73649 9.40536 4.842 9.57316 4.86412L13.5696 5.39092C13.9866 5.44589 14.1535 5.95972 13.8485 6.24927L10.925 9.02451C10.8022 9.14104 10.7467 9.31176 10.7776 9.47818L11.5115 13.4418C11.5881 13.8553 11.151 14.1729 10.7813 13.9723L7.23851 12.0494C7.08975 11.9687 6.91025 11.9687 6.76149 12.0494L3.21865 13.9723C2.84902 14.1729 2.41193 13.8553 2.4885 13.4418L3.22245 9.47818C3.25327 9.31176 3.1978 9.14104 3.07504 9.02451L0.1515 6.24927C-0.153516 5.95972 0.0134399 5.44589 0.430392 5.39092L4.42684 4.86412C4.59464 4.842 4.73986 4.73649 4.81275 4.58374L6.54874 0.945683Z" fill="#467497"/>
</svg>
