<svg width="43" height="37" viewBox="0 0 43 37" fill="none" xmlns="http://www.w3.org/2000/svg">
<path d="M39.2491 1.13811C33.6093 3.47361 9.42761 13.4902 2.74601 16.2203C-1.73509 17.969 0.887964 19.6084 0.887964 19.6084C0.887964 19.6084 4.71296 20.9197 7.99166 21.9034C11.2704 22.8871 13.0191 21.794 13.0191 21.794L28.4289 11.4112C33.8932 7.69551 32.5819 10.7555 31.2706 12.0668C28.4289 14.9086 23.7295 19.3892 19.7952 22.996C18.0465 24.526 18.9208 25.8377 19.6858 26.4934C22.5276 28.8977 30.2869 33.8158 30.7243 34.1438C33.0333 35.7782 37.5747 38.1313 38.2654 33.1601L40.9978 16.0016C41.8722 10.2092 42.7465 4.85376 42.8559 3.32376C43.1835 -0.391895 39.2491 1.13811 39.2491 1.13811Z" fill="white"/>
</svg>
